<svg width="30" height="30" viewBox="0 0 30 30" fill="none" xmlns="http://www.w3.org/2000/svg">
<rect width="30" height="30" rx="4" fill="#E8F1FD"/>
<path d="M18.619 8.33914C19.2296 8.33914 19.8153 8.09663 20.2471 7.66486C20.6789 7.23305 20.9214 6.64732 20.9214 6.03676C20.9214 5.42602 20.6789 4.84049 20.2471 4.40866C19.8153 3.97686 19.2296 3.73438 18.619 3.73438C18.0083 3.73438 17.4228 3.97689 16.9909 4.40866C16.5591 4.84046 16.3164 5.42597 16.3164 6.03676C16.3164 6.64732 16.5591 7.23303 16.9909 7.66486C17.4227 8.09666 18.0082 8.33914 18.619 8.33914ZM18.619 5.04994C18.8806 5.04994 19.1316 5.15387 19.3167 5.33903C19.5017 5.52395 19.6056 5.77496 19.6056 6.03675C19.6056 6.29831 19.5017 6.54932 19.3167 6.73448C19.1316 6.9194 18.8806 7.02357 18.619 7.02357C18.3572 7.02357 18.1062 6.9194 17.9211 6.73448C17.7361 6.54932 17.6322 6.29832 17.6322 6.03675C17.6322 5.77497 17.7361 5.52396 17.9211 5.33903C18.1062 5.15388 18.3572 5.04994 18.619 5.04994Z" fill="#629FF4"/>
<path d="M22.2373 10.6415C22.2373 11.2522 22.4798 11.8378 22.9116 12.2696C23.3434 12.7014 23.9291 12.9439 24.5397 12.9439C25.1504 12.9439 25.736 12.7014 26.1678 12.2696C26.5996 11.8378 26.8423 11.2523 26.8423 10.6415C26.8423 10.0309 26.5996 9.44522 26.1678 9.0134C25.736 8.5816 25.1505 8.33911 24.5397 8.33911C23.9291 8.33911 23.3434 8.58163 22.9116 9.0134C22.4798 9.4452 22.2373 10.0309 22.2373 10.6415ZM25.5265 10.6415C25.5265 10.9033 25.4226 11.1543 25.2376 11.3392C25.0525 11.5244 24.8015 11.6283 24.5397 11.6283C24.2781 11.6283 24.0271 11.5244 23.842 11.3392C23.657 11.1543 23.5531 10.9033 23.5531 10.6415C23.5531 10.3799 23.657 10.1289 23.842 9.94377C24.0271 9.75885 24.2781 9.65468 24.5397 9.65468C24.8015 9.65468 25.0525 9.75884 25.2376 9.94377C25.4226 10.1289 25.5265 10.3799 25.5265 10.6415Z" fill="#629FF4"/>
<path d="M18.2279 12.6508C18.3681 12.755 18.5443 12.7988 18.7171 12.7729C18.8899 12.747 19.0452 12.6534 19.1489 12.5127L24.7405 4.94756V4.94778C24.9566 4.65525 24.8949 4.24296 24.6024 4.02681C24.3098 3.81045 23.8975 3.8724 23.6814 4.16493L18.0898 11.7301V11.7299C17.9856 11.8703 17.9418 12.0463 17.9677 12.219C17.9937 12.3918 18.0873 12.5473 18.2279 12.6508L18.2279 12.6508Z" fill="#629FF4"/>
<path d="M8.09354 9.32593C7.15952 9.32593 2.50195 9.42137 2.50195 11.2996C2.50195 13.1778 7.15952 13.2732 8.09354 13.2732C9.02756 13.2732 13.6851 13.1778 13.6851 11.2996C13.6854 9.42137 9.02779 9.32593 8.09354 9.32593ZM8.09354 11.9573C5.89647 11.9573 4.4753 11.579 3.9623 11.2996C4.47555 11.0199 5.89647 10.6416 8.09354 10.6416C10.2906 10.6416 11.7118 11.0199 12.2248 11.2993C11.7118 11.579 10.2908 11.9573 8.09354 11.9573Z" fill="#629FF4"/>
<path d="M13.0276 12.7795C12.7018 12.7752 12.4219 13.0103 12.3698 13.332C12.0802 13.6082 10.5772 14.0951 8.09376 14.0951C5.61059 14.0951 4.09743 13.6018 3.81797 13.332C3.78883 12.9688 3.47083 12.6978 3.10739 12.7267C2.74419 12.7559 2.47321 13.0739 2.50211 13.4373C2.50211 15.3155 7.15968 15.4109 8.0937 15.4109C9.02772 15.4109 13.6853 15.3155 13.6853 13.4373H13.6855C13.6855 13.2627 13.6162 13.0954 13.4928 12.972C13.3694 12.8488 13.2021 12.7795 13.0275 12.7795H13.0276Z" fill="#629FF4"/>
<path d="M13.0276 15.082C12.7018 15.0779 12.4219 15.3128 12.3698 15.6345C12.0802 15.9107 10.5772 16.3976 8.09376 16.3976C5.61059 16.3976 4.09743 15.9043 3.81797 15.6345C3.78883 15.2713 3.47083 15.0003 3.10739 15.0292C2.74419 15.0584 2.47321 15.3764 2.50211 15.7398C2.50211 17.618 7.15968 17.7134 8.0937 17.7134C9.02772 17.7134 13.6853 17.618 13.6853 15.7398H13.6855C13.6855 15.5654 13.6162 15.3979 13.4928 15.2747C13.3694 15.1513 13.2021 15.082 13.0275 15.082H13.0276Z" fill="#629FF4"/>
<path d="M13.0276 17.3845C12.7018 17.3804 12.4219 17.6153 12.3698 17.937C12.0802 18.2133 10.5772 18.7001 8.09376 18.7001C5.61059 18.7001 4.09743 18.2068 3.81797 17.937C3.78883 17.5738 3.47083 17.3028 3.10739 17.332C2.74419 17.3609 2.47321 17.6791 2.50211 18.0423C2.50211 19.9205 7.15968 20.016 8.0937 20.016C9.02772 20.016 13.6853 19.9205 13.6853 18.0423H13.6855C13.6855 17.868 13.6162 17.7005 13.4928 17.5773C13.3694 17.4538 13.2021 17.3845 13.0275 17.3845H13.0276Z" fill="#629FF4"/>
<path d="M13.0276 19.6868C12.7018 19.6827 12.4219 19.9176 12.3698 20.2395C12.0802 20.5157 10.5772 21.0026 8.09376 21.0026C5.61059 21.0026 4.09743 20.5091 3.81797 20.2395C3.78883 19.8761 3.47083 19.6051 3.10739 19.6342C2.74419 19.6634 2.47321 19.9814 2.50211 20.3446C2.50211 22.2228 7.15968 22.3182 8.0937 22.3182C9.02772 22.3182 13.6853 22.2228 13.6853 20.3446H13.6855C13.6855 20.1702 13.6162 20.0029 13.4928 19.8795C13.3694 19.7561 13.2021 19.6868 13.0275 19.6868H13.0276Z" fill="#629FF4"/>
<path d="M13.0276 21.9893C12.7018 21.9851 12.4219 22.2203 12.3698 22.542C12.0802 22.8182 10.5772 23.3051 8.09376 23.3051C5.61059 23.3051 4.09743 22.8116 3.81797 22.542C3.78883 22.1786 3.47083 21.9076 3.10739 21.9367C2.74419 21.9659 2.47321 22.2839 2.50211 22.6473C2.50211 24.5255 7.15968 24.6209 8.0937 24.6209C9.02772 24.6209 13.6853 24.5255 13.6853 22.6473H13.6855C13.6855 22.4727 13.6162 22.3054 13.4928 22.182C13.3694 22.0586 13.2021 21.9893 13.0275 21.9893L13.0276 21.9893Z" fill="#629FF4"/>
<path d="M21.9085 19.5225C22.8425 19.5225 27.5001 19.427 27.5001 17.5488C27.5001 15.6706 22.8425 15.5752 21.9085 15.5752C20.9745 15.5752 16.3169 15.6706 16.3169 17.5488C16.3167 19.4272 20.9742 19.5225 21.9085 19.5225ZM21.9085 16.8911C24.1056 16.8911 25.5267 17.2694 26.0397 17.5488C25.5265 17.8285 24.1056 18.2069 21.9085 18.2069C19.7114 18.2069 18.2902 17.8285 17.7772 17.5491C18.2903 17.2694 19.7112 16.8913 21.9085 16.8913V16.8911Z" fill="#629FF4"/>
<path d="M26.8422 19.0291C26.5162 19.0249 26.2366 19.2599 26.1842 19.5815C25.8947 19.8578 24.3916 20.3446 21.9082 20.3446C19.425 20.3446 17.9119 19.8514 17.6324 19.5815C17.6033 19.2183 17.2853 18.9474 16.9218 18.9765C16.5586 19.0054 16.2877 19.3237 16.3166 19.6869C16.3166 21.5651 20.9741 21.6605 21.9082 21.6605C22.8422 21.6605 27.4997 21.5651 27.4997 19.6869H27.5C27.5 19.5125 27.4307 19.345 27.3072 19.2218C27.1838 19.0984 27.0165 19.0291 26.8422 19.0291H26.8422Z" fill="#629FF4"/>
<path d="M26.8422 21.3316C26.5162 21.3274 26.2366 21.5624 26.1842 21.8843C25.8947 22.1605 24.3916 22.6474 21.9082 22.6474C19.425 22.6474 17.9119 22.1539 17.6324 21.8843C17.6033 21.5208 17.2853 21.2499 16.9218 21.279C16.5586 21.3081 16.2877 21.6261 16.3166 21.9894C16.3166 23.8675 20.9741 23.963 21.9082 23.963C22.8422 23.963 27.4997 23.8675 27.4997 21.9894H27.5C27.5 21.815 27.4307 21.6477 27.3072 21.5243C27.1838 21.4008 27.0165 21.3316 26.8422 21.3316H26.8422Z" fill="#629FF4"/>
<path d="M26.8422 23.634C26.5162 23.6299 26.2366 23.8651 26.1842 24.1868C25.8947 24.463 24.3916 24.9499 21.9082 24.9499C19.425 24.9499 17.9119 24.4563 17.6324 24.1868C17.6033 23.8233 17.2853 23.5524 16.9218 23.5815C16.5586 23.6106 16.2877 23.9286 16.3166 24.2921C16.3166 26.1703 20.9741 26.2657 21.9082 26.2657C22.8422 26.2657 27.4997 26.1703 27.4997 24.2921H27.5C27.5 24.1175 27.4307 23.9502 27.3072 23.8268C27.1838 23.7033 27.0165 23.6341 26.8422 23.6341L26.8422 23.634Z" fill="#629FF4"/>
</svg>
